<?xml version="1.0" encoding="UTF-8"?>
<svg id="Layer_1" data-name="Layer 1" xmlns="http://www.w3.org/2000/svg" viewBox="0 0 1254.28 1033.57">
  <defs>
    <style>
      .cls-1 {
        fill: #6a30f7;
      }

      .cls-2 {
        fill: #00bd9f;
      }
    </style>
  </defs>
  <g>
    <path d="M434.35,542.48c-.17,10.31-3.21,25.65-16.64,27.3-1.91.17-2.77.09-3.99-.26l-3.29-6.85.78-1.13c1.82.61,2.25.61,3.73.52,9.62-.78,12.57-12.74,12.57-22.96,0-5.63-.43-10.23-1.82-18.46l6.67-1.65,1.3.95,1.13,8.75c.87,7.37,4.33,9.45,11.61,9.45v9.01h-1.13c-5.81,0-9.79-2.34-10.92-4.68ZM433.65,506.52l-5.11,5.11-5.03-5.11,5.03-5.03,5.11,5.03Z"/>
    <path d="M445.87,538.15h11.01v9.01h-11.01v-9.01Z"/>
    <path d="M456.1,538.15h11.01v9.01h-11.01v-9.01Z"/>
    <path d="M466.32,538.15h11.01v9.01h-11.01v-9.01Z"/>
    <path d="M476.55,538.15h11.01v9.01h-11.01v-9.01Z"/>
    <path d="M512.6,547.16c-6.67,0-11.7-2.86-13-8.75l-4.59,8.75h-8.23v-9.01h9.71c.43-2.08,1.65-6.67,1.65-11.27v-6.24l7.71-2.08v11.09c0,5.37,2.25,7.97,7.19,8.41l5.2.09v9.01h-5.63ZM502.03,560.16l-5.11,5.11-4.94-5.11,4.94-5.03,5.11,5.03ZM514.24,560.16l-5.11,5.11-4.94-5.11,4.94-5.03,5.11,5.03Z"/>
    <path d="M517.54,538.15h11.01v9.01h-11.01v-9.01Z"/>
    <path d="M527.76,538.15h11.01v9.01h-11.01v-9.01Z"/>
    <path d="M537.99,538.15h11.01v9.01h-11.01v-9.01Z"/>
    <path d="M593.28,531.82c0,9.53-6.07,16.29-16.81,16.29-6.59,0-12.48-3.81-16.21-9.01l-4.16,8.06h-8.06v-9.01h4.85c4.42-3.47,5.55-8.32,8.15-14.47,3.47-8.06,8.67-11.96,15.69-11.79l12.22.09,4.25,4.25.09,15.6ZM587.47,531.04c-.35-3.03-.78-9.79-1.21-9.97-.43-.26-6.33-.52-9.19-.52-6.07,0-8.75,2.43-13.35,12.57,4.33,3.9,9.01,5.81,13.61,5.81,5.89,0,9.45-2.77,10.14-7.89Z"/>
    <path d="M617.98,542.48c-.17,10.31-3.21,25.65-16.64,27.3-1.91.17-2.77.09-3.99-.26l-3.29-6.85.78-1.13c1.82.61,2.25.61,3.73.52,9.62-.78,12.57-12.74,12.57-22.96,0-5.63-.43-9.88-1.82-18.03l6.93-2.25.95.69,1.21,9.19c.87,7.37,4.33,9.45,11.61,9.45v9.01h-1.13c-5.81,0-9.79-2.34-10.92-4.68Z"/>
    <path d="M629.24,538.15h11.01v9.01h-11.01v-9.01Z"/>
    <path d="M639.47,538.15h11.01v9.01h-11.01v-9.01Z"/>
    <path d="M649,538.15h5.46c4.77,0,10.4-1.91,10.4-1.91,0,0-.17-4.25-.52-9.19-.09-3.47-.52-7.02-1.04-12.13l7.8-2.08c.87,5.89,1.39,11.79,1.3,16.38-.09,5.63-.87,12.22-1.56,13.95,0,0-5.63,3.9-15.43,3.99h-6.41v-9.01ZM664.08,500.36l-5.2,5.2-5.03-5.2,5.03-4.94,5.2,4.94ZM676.3,500.36l-5.2,5.2-5.03-5.2,5.03-4.94,5.2,4.94Z"/>
    <path d="M425.85,596.81h-18.29v-7.63h46.36v7.63h-18.29v54.34h-9.79v-54.34Z"/>
    <path d="M496.57,622.03v29.2h-4.85c-2.51,0-3.64-1.91-3.73-4.07v-3.73h-.43l-1.65,3.12c-2.43,4.33-10.4,5.46-14.65,5.2-5.81-.43-10.57-2.43-10.57-2.43,0,0-2.86-5.81-2.86-10.31,0-9.62,9.71-13.69,21.75-13.69h8.23v-2.77c0-6.93-3.47-10.14-9.97-10.66-5.81-.17-11.53,1.39-13,2.08l-5.03-4.16.35-1.13c3.64-1.99,12.22-3.73,19.07-3.64,10.75,0,17.33,5.89,17.33,16.99ZM487.81,630.35h-8.15c-7.37,0-12.83,1.91-12.83,8.06,0,2.34,1.21,5.55,1.21,5.55.95.35,3.29,1.3,5.46,1.47,5.72.69,10.92-.78,14.3-5.55v-9.53Z"/>
    <path d="M531.84,612.67l-1.21.95c-2.86-.09-6.15.87-6.93,1.04l-7.37,6.59v29.9h-9.01l.17-42.98,8.84-2.25v10.75l7.54-9.88s3.73-1.82,7.97-1.13v7.02Z"/>
    <path d="M608.79,621.34v29.81h-9.27l-.43-35.36c-2.34-2.51-7.37-2.86-8.84-2.95-5.72,0-11.09,3.81-11.09,11.18v27.13h-9.19v-27.73c0-7.89-3.81-10.75-12.22-10.57l-8.32,7.11v31.2h-9.27v-43.42l8.41-1.99v10.31h.69l8.58-11.09c13-.09,17.68,1.65,20.28,8.93,3.03-5.81,8.84-9.01,15.77-9.01,6.07,0,13.95,4.77,13.95,4.77,0,0,.95,3.47.95,11.7Z"/>
    <path d="M624.3,599.59l-5.98-6.07,5.98-5.89,5.98,5.89-5.98,6.07ZM619.79,651.15h9.27v-45.24l-9.27,3.21v42.03Z"/>
    <path d="M637.99,645.95l25.91-33.1h-24.78v-7.02h33.88l1.73,5.63-25.65,32.67h25.91l.78.78-1.47,6.24h-34.06l-2.25-5.2Z"/>
  </g>
  <g>
    <path class="cls-2" d="M730.75,505.63v7.99c0,18.25,2.16,33.23,6.48,44.91,4.32,11.68,11.81,21.61,22.45,29.78,10.65,8.17,22.69,13.6,36.14,16.33v-27.86c-9.61-5.45-15.05-12.73-16.33-21.85h16.33v-49.3h-65.08Z"/>
    <g>
      <rect class="cls-2" x="795" y="384.02" width="64.97" height="61.26"/>
      <polygon class="cls-1" points="730.05 496.01 795.13 496.01 795.13 444.85 730.28 380 668.16 380 668.16 446.68 730.96 446.68 730.05 496.01"/>
    </g>
  </g>
</svg>